<?xml version="1.0" standalone="no"?>
<!DOCTYPE svg PUBLIC "-//W3C//DTD SVG 20010904//EN"
 "http://www.w3.org/TR/2001/REC-SVG-20010904/DTD/svg10.dtd">
<svg version="1.0" xmlns="http://www.w3.org/2000/svg"
 width="96.000000pt" height="96.000000pt" viewBox="0 0 96.000000 96.000000"
 preserveAspectRatio="xMidYMid meet">
<metadata>
Created by potrace 1.16, written by Peter Selinger 2001-2019
</metadata>
<g transform="translate(0.000000,96.000000) scale(0.100000,-0.100000)"
fill="#000000" stroke="none">
<path d="M390 931 c-54 -18 -107 -51 -153 -98 -46 -45 -97 -127 -97 -155 0 -7
13 14 29 47 24 52 115 155 136 155 4 0 -18 -22 -48 -50 -74 -68 -109 -146
-109 -243 1 -40 8 -92 17 -116 8 -24 13 -46 11 -48 -5 -5 -33 80 -39 117 -4
22 -4 21 -5 -5 -1 -38 30 -120 46 -120 6 0 19 -11 29 -25 l17 -25 -25 20 -24
20 15 -20 c25 -35 84 -95 93 -95 5 0 3 8 -4 18 -13 15 -12 16 3 4 9 -7 15 -22
13 -33 -4 -21 14 -26 32 -8 6 6 13 7 16 1 4 -5 -9 -14 -28 -20 -25 -7 -33 -7
-29 0 5 7 -2 9 -20 4 -21 -5 -34 -1 -57 19 -43 35 -107 35 -146 -1 -15 -14
-22 -22 -14 -18 9 4 12 2 9 -7 -3 -8 -11 -14 -19 -14 -20 0 -23 -47 -4 -86 8
-19 13 -25 9 -14 -3 11 -8 38 -10 60 -2 22 -1 31 2 20 2 -11 10 -40 16 -65 17
-69 22 -72 109 -69 74 3 78 2 114 -30 41 -36 75 -52 108 -50 12 1 3 5 -20 10
-23 6 -47 16 -53 24 -11 13 -9 13 16 0 41 -21 78 -19 111 8 35 29 44 28 78 -5
14 -15 39 -30 55 -33 35 -8 105 21 139 58 18 20 30 25 60 22 34 -4 34 -4 6 4
-22 6 -10 8 45 7 l75 -1 14 35 c16 39 19 85 7 115 -7 20 -7 20 5 0 7 -10 16
-33 20 -50 6 -27 7 -28 8 -5 0 14 -8 39 -18 57 -19 31 -22 32 -85 30 -36 -1
-61 2 -56 7 4 4 28 7 53 5 25 -2 43 -1 40 4 -6 11 -81 9 -104 -4 -11 -5 -17
-14 -15 -18 3 -5 -4 -17 -17 -27 l-22 -19 19 23 c19 22 10 32 -10 12 -15 -15
-63 5 -60 24 1 9 6 19 11 23 4 4 5 2 1 -4 -17 -30 15 -9 58 37 94 100 125 234
83 355 -18 52 -99 165 -118 165 -6 0 12 -25 39 -55 63 -69 87 -134 86 -232 -1
-60 -6 -84 -32 -135 -17 -35 -48 -79 -68 -98 l-38 -35 38 44 c60 68 89 141 90
225 1 101 -23 163 -92 238 -32 34 -51 58 -43 53 10 -5 12 -4 7 4 -4 6 -31 23
-59 38 -42 21 -68 27 -137 29 -47 2 -96 0 -110 -5z m304 -708 c65 -21 133 -37
163 -37 29 -1 53 -1 53 -2 0 -1 -5 -15 -11 -32 -13 -38 -58 -50 -127 -34 -43
10 -46 9 -71 -20 -47 -57 -119 -73 -165 -37 -43 34 -30 89 21 89 20 0 22 -3
14 -18 -7 -13 -6 -23 1 -30 17 -17 31 -15 72 13 20 13 36 20 36 15 0 -5 -20
-21 -45 -36 -44 -25 -47 -26 -66 -9 -12 11 -17 25 -13 37 7 22 -2 23 -23 2
-14 -14 -14 -18 4 -42 29 -37 81 -35 130 5 20 16 38 34 40 39 6 17 -165 64
-228 64 -35 0 -88 -11 -145 -30 -122 -42 -172 -52 -215 -45 -30 5 -40 12 -48
37 -6 17 -11 31 -11 32 0 1 26 1 58 2 36 0 91 12 153 32 183 62 246 63 423 5z"/>
</g>
</svg>
